<svg preserveAspectRatio="none" width="100%" height="100%" overflow="visible" style="display: block;" viewBox="0 0 31.4386 49.8904" fill="none" xmlns="http://www.w3.org/2000/svg">
<path id="Vector" d="M20.1676 29.374H16.9677V26.1741C16.9677 25.4894 16.4132 24.9348 15.7284 24.9348C15.0437 24.9348 14.4917 25.4894 14.4917 26.1741V29.374H11.271C10.5889 29.374 10.0317 29.9285 10.0317 30.6107C10.0317 31.2928 10.5889 31.85 11.271 31.85H14.4917V35.0498C14.4917 35.732 15.0463 36.2866 15.7284 36.2866C16.4106 36.2866 16.9677 35.732 16.9677 35.0498V31.85H20.1676C20.8497 31.85 21.4069 31.2954 21.4069 30.6107C21.4069 29.9259 20.8497 29.374 20.1676 29.374ZM20.1676 29.374H16.9677V26.1741C16.9677 25.4894 16.4132 24.9348 15.7284 24.9348C15.0437 24.9348 14.4917 25.4894 14.4917 26.1741V29.374H11.271C10.5889 29.374 10.0317 29.9285 10.0317 30.6107C10.0317 31.2928 10.5889 31.85 11.271 31.85H14.4917V35.0498C14.4917 35.732 15.0463 36.2866 15.7284 36.2866C16.4106 36.2866 16.9677 35.732 16.9677 35.0498V31.85H20.1676C20.8497 31.85 21.4069 31.2954 21.4069 30.6107C21.4069 29.9259 20.8497 29.374 20.1676 29.374ZM20.1676 29.374H16.9677V26.1741C16.9677 25.4894 16.4132 24.9348 15.7284 24.9348C15.0437 24.9348 14.4917 25.4894 14.4917 26.1741V29.374H11.271C10.5889 29.374 10.0317 29.9285 10.0317 30.6107C10.0317 31.2928 10.5889 31.85 11.271 31.85H14.4917V35.0498C14.4917 35.732 15.0463 36.2866 15.7284 36.2866C16.4106 36.2866 16.9677 35.732 16.9677 35.0498V31.85H20.1676C20.8497 31.85 21.4069 31.2954 21.4069 30.6107C21.4069 29.9259 20.8497 29.374 20.1676 29.374ZM20.1676 29.374H16.9677V26.1741C16.9677 25.4894 16.4132 24.9348 15.7284 24.9348C15.0437 24.9348 14.4917 25.4894 14.4917 26.1741V29.374H11.271C10.5889 29.374 10.0317 29.9285 10.0317 30.6107C10.0317 31.2928 10.5889 31.85 11.271 31.85H14.4917V35.0498C14.4917 35.732 15.0463 36.2866 15.7284 36.2866C16.4106 36.2866 16.9677 35.732 16.9677 35.0498V31.85H20.1676C20.8497 31.85 21.4069 31.2954 21.4069 30.6107C21.4069 29.9259 20.8497 29.374 20.1676 29.374ZM20.1676 29.374H16.9677V26.1741C16.9677 25.4894 16.4132 24.9348 15.7284 24.9348C15.0437 24.9348 14.4917 25.4894 14.4917 26.1741V29.374H11.271C10.5889 29.374 10.0317 29.9285 10.0317 30.6107C10.0317 31.2928 10.5889 31.85 11.271 31.85H14.4917V35.0498C14.4917 35.732 15.0463 36.2866 15.7284 36.2866C16.4106 36.2866 16.9677 35.732 16.9677 35.0498V31.85H20.1676C20.8497 31.85 21.4069 31.2954 21.4069 30.6107C21.4069 29.9259 20.8497 29.374 20.1676 29.374ZM20.1676 29.374H16.9677V26.1741C16.9677 25.4894 16.4132 24.9348 15.7284 24.9348C15.0437 24.9348 14.4917 25.4894 14.4917 26.1741V29.374H11.271C10.5889 29.374 10.0317 29.9285 10.0317 30.6107C10.0317 31.2928 10.5889 31.85 11.271 31.85H14.4917V35.0498C14.4917 35.732 15.0463 36.2866 15.7284 36.2866C16.4106 36.2866 16.9677 35.732 16.9677 35.0498V31.85H20.1676C20.8497 31.85 21.4069 31.2954 21.4069 30.6107C21.4069 29.9259 20.8497 29.374 20.1676 29.374ZM20.1676 29.374H16.9677V26.1741C16.9677 25.4894 16.4132 24.9348 15.7284 24.9348C15.0437 24.9348 14.4917 25.4894 14.4917 26.1741V29.374H11.271C10.5889 29.374 10.0317 29.9285 10.0317 30.6107C10.0317 31.2928 10.5889 31.85 11.271 31.85H14.4917V35.0498C14.4917 35.732 15.0463 36.2866 15.7284 36.2866C16.4106 36.2866 16.9677 35.732 16.9677 35.0498V31.85H20.1676C20.8497 31.85 21.4069 31.2954 21.4069 30.6107C21.4069 29.9259 20.8497 29.374 20.1676 29.374ZM20.1676 29.374H16.9677V26.1741C16.9677 25.4894 16.4132 24.9348 15.7284 24.9348C15.0437 24.9348 14.4917 25.4894 14.4917 26.1741V29.374H11.271C10.5889 29.374 10.0317 29.9285 10.0317 30.6107C10.0317 31.2928 10.5889 31.85 11.271 31.85H14.4917V35.0498C14.4917 35.732 15.0463 36.2866 15.7284 36.2866C16.4106 36.2866 16.9677 35.732 16.9677 35.0498V31.85H20.1676C20.8497 31.85 21.4069 31.2954 21.4069 30.6107C21.4069 29.9259 20.8497 29.374 20.1676 29.374ZM20.1676 29.374H16.9677V26.1741C16.9677 25.4894 16.4132 24.9348 15.7284 24.9348C15.0437 24.9348 14.4917 25.4894 14.4917 26.1741V29.374H11.271C10.5889 29.374 10.0317 29.9285 10.0317 30.6107C10.0317 31.2928 10.5889 31.85 11.271 31.85H14.4917V35.0498C14.4917 35.732 15.0463 36.2866 15.7284 36.2866C16.4106 36.2866 16.9677 35.732 16.9677 35.0498V31.85H20.1676C20.8497 31.85 21.4069 31.2954 21.4069 30.6107C21.4069 29.9259 20.8497 29.374 20.1676 29.374ZM20.1676 29.374H16.9677V26.1741C16.9677 25.4894 16.4132 24.9348 15.7284 24.9348C15.0437 24.9348 14.4917 25.4894 14.4917 26.1741V29.374H11.271C10.5889 29.374 10.0317 29.9285 10.0317 30.6107C10.0317 31.2928 10.5889 31.85 11.271 31.85H14.4917V35.0498C14.4917 35.732 15.0463 36.2866 15.7284 36.2866C16.4106 36.2866 16.9677 35.732 16.9677 35.0498V31.85H20.1676C20.8497 31.85 21.4069 31.2954 21.4069 30.6107C21.4069 29.9259 20.8497 29.374 20.1676 29.374ZM20.1676 29.374H16.9677V26.1741C16.9677 25.4894 16.4132 24.9348 15.7284 24.9348C15.0437 24.9348 14.4917 25.4894 14.4917 26.1741V29.374H11.271C10.5889 29.374 10.0317 29.9285 10.0317 30.6107C10.0317 31.2928 10.5889 31.85 11.271 31.85H14.4917V35.0498C14.4917 35.732 15.0463 36.2866 15.7284 36.2866C16.4106 36.2866 16.9677 35.732 16.9677 35.0498V31.85H20.1676C20.8497 31.85 21.4069 31.2954 21.4069 30.6107C21.4069 29.9259 20.8497 29.374 20.1676 29.374ZM20.1676 29.374H16.9677V26.1741C16.9677 25.4894 16.4132 24.9348 15.7284 24.9348C15.0437 24.9348 14.4917 25.4894 14.4917 26.1741V29.374H11.271C10.5889 29.374 10.0317 29.9285 10.0317 30.6107C10.0317 31.2928 10.5889 31.85 11.271 31.85H14.4917V35.0498C14.4917 35.732 15.0463 36.2866 15.7284 36.2866C16.4106 36.2866 16.9677 35.732 16.9677 35.0498V31.85H20.1676C20.8497 31.85 21.4069 31.2954 21.4069 30.6107C21.4069 29.9259 20.8497 29.374 20.1676 29.374ZM28.9157 13.5466L25.5467 9.55786C23.8491 7.5687 22.8129 5.09787 22.5603 2.49686C22.5213 2.0881 22.5004 1.67412 22.5004 1.26015C22.5004 0.575397 21.9458 0.0208294 21.2611 0.0208294H10.404C10.3311 0.00781132 10.253 0 10.1775 0C10.102 0 10.0265 0.00781132 9.95361 0.0208294C9.37561 0.124974 8.9382 0.632677 8.9382 1.23932C8.9382 1.6611 8.91737 2.08029 8.87572 2.49686C8.62056 5.08746 7.58172 7.55829 5.88677 9.56307L2.52811 13.544C0.898248 15.4498 0 17.8972 0 20.4358V44.3369C0 47.3988 2.49166 49.8904 5.55351 49.8904H25.8851C28.947 49.8904 31.4386 47.3988 31.4386 44.3369V20.4358C31.4386 17.8972 30.5404 15.4498 28.9157 13.5466ZM4.41312 15.1452L7.7796 11.1617C9.85207 8.71169 11.1018 5.67588 11.3648 2.49686H20.0739C20.3316 5.6915 21.584 8.72991 23.659 11.1617L27.0281 15.1504C28.0149 16.3064 28.6528 17.728 28.8741 19.2381H2.56456C2.78587 17.728 3.42375 16.3064 4.41312 15.1452ZM28.96 44.3369C28.96 46.0345 27.5827 47.4144 25.8851 47.4144H5.55351C3.85595 47.4144 2.47864 46.0345 2.47864 44.3369V41.9859H28.96V44.3369ZM28.96 39.5072H2.47864V21.7141H28.96V39.5072ZM11.271 31.85H14.4917V35.0498C14.4917 35.732 15.0463 36.2866 15.7284 36.2866C16.4106 36.2866 16.9677 35.732 16.9677 35.0498V31.85H20.1676C20.8497 31.85 21.4069 31.2954 21.4069 30.6107C21.4069 29.9259 20.8497 29.374 20.1676 29.374H16.9677V26.1741C16.9677 25.4894 16.4132 24.9348 15.7284 24.9348C15.0437 24.9348 14.4917 25.4894 14.4917 26.1741V29.374H11.271C10.5889 29.374 10.0317 29.9285 10.0317 30.6107C10.0317 31.2928 10.5889 31.85 11.271 31.85ZM20.1676 29.374H16.9677V26.1741C16.9677 25.4894 16.4132 24.9348 15.7284 24.9348C15.0437 24.9348 14.4917 25.4894 14.4917 26.1741V29.374H11.271C10.5889 29.374 10.0317 29.9285 10.0317 30.6107C10.0317 31.2928 10.5889 31.85 11.271 31.85H14.4917V35.0498C14.4917 35.732 15.0463 36.2866 15.7284 36.2866C16.4106 36.2866 16.9677 35.732 16.9677 35.0498V31.85H20.1676C20.8497 31.85 21.4069 31.2954 21.4069 30.6107C21.4069 29.9259 20.8497 29.374 20.1676 29.374ZM20.1676 29.374H16.9677V26.1741C16.9677 25.4894 16.4132 24.9348 15.7284 24.9348C15.0437 24.9348 14.4917 25.4894 14.4917 26.1741V29.374H11.271C10.5889 29.374 10.0317 29.9285 10.0317 30.6107C10.0317 31.2928 10.5889 31.85 11.271 31.85H14.4917V35.0498C14.4917 35.732 15.0463 36.2866 15.7284 36.2866C16.4106 36.2866 16.9677 35.732 16.9677 35.0498V31.85H20.1676C20.8497 31.85 21.4069 31.2954 21.4069 30.6107C21.4069 29.9259 20.8497 29.374 20.1676 29.374ZM20.1676 29.374H16.9677V26.1741C16.9677 25.4894 16.4132 24.9348 15.7284 24.9348C15.0437 24.9348 14.4917 25.4894 14.4917 26.1741V29.374H11.271C10.5889 29.374 10.0317 29.9285 10.0317 30.6107C10.0317 31.2928 10.5889 31.85 11.271 31.85H14.4917V35.0498C14.4917 35.732 15.0463 36.2866 15.7284 36.2866C16.4106 36.2866 16.9677 35.732 16.9677 35.0498V31.85H20.1676C20.8497 31.85 21.4069 31.2954 21.4069 30.6107C21.4069 29.9259 20.8497 29.374 20.1676 29.374ZM20.1676 29.374H16.9677V26.1741C16.9677 25.4894 16.4132 24.9348 15.7284 24.9348C15.0437 24.9348 14.4917 25.4894 14.4917 26.1741V29.374H11.271C10.5889 29.374 10.0317 29.9285 10.0317 30.6107C10.0317 31.2928 10.5889 31.85 11.271 31.85H14.4917V35.0498C14.4917 35.732 15.0463 36.2866 15.7284 36.2866C16.4106 36.2866 16.9677 35.732 16.9677 35.0498V31.85H20.1676C20.8497 31.85 21.4069 31.2954 21.4069 30.6107C21.4069 29.9259 20.8497 29.374 20.1676 29.374ZM20.1676 29.374H16.9677V26.1741C16.9677 25.4894 16.4132 24.9348 15.7284 24.9348C15.0437 24.9348 14.4917 25.4894 14.4917 26.1741V29.374H11.271C10.5889 29.374 10.0317 29.9285 10.0317 30.6107C10.0317 31.2928 10.5889 31.85 11.271 31.85H14.4917V35.0498C14.4917 35.732 15.0463 36.2866 15.7284 36.2866C16.4106 36.2866 16.9677 35.732 16.9677 35.0498V31.85H20.1676C20.8497 31.85 21.4069 31.2954 21.4069 30.6107C21.4069 29.9259 20.8497 29.374 20.1676 29.374ZM20.1676 29.374H16.9677V26.1741C16.9677 25.4894 16.4132 24.9348 15.7284 24.9348C15.0437 24.9348 14.4917 25.4894 14.4917 26.1741V29.374H11.271C10.5889 29.374 10.0317 29.9285 10.0317 30.6107C10.0317 31.2928 10.5889 31.85 11.271 31.85H14.4917V35.0498C14.4917 35.732 15.0463 36.2866 15.7284 36.2866C16.4106 36.2866 16.9677 35.732 16.9677 35.0498V31.85H20.1676C20.8497 31.85 21.4069 31.2954 21.4069 30.6107C21.4069 29.9259 20.8497 29.374 20.1676 29.374ZM20.1676 29.374H16.9677V26.1741C16.9677 25.4894 16.4132 24.9348 15.7284 24.9348C15.0437 24.9348 14.4917 25.4894 14.4917 26.1741V29.374H11.271C10.5889 29.374 10.0317 29.9285 10.0317 30.6107C10.0317 31.2928 10.5889 31.85 11.271 31.85H14.4917V35.0498C14.4917 35.732 15.0463 36.2866 15.7284 36.2866C16.4106 36.2866 16.9677 35.732 16.9677 35.0498V31.85H20.1676C20.8497 31.85 21.4069 31.2954 21.4069 30.6107C21.4069 29.9259 20.8497 29.374 20.1676 29.374ZM20.1676 29.374H16.9677V26.1741C16.9677 25.4894 16.4132 24.9348 15.7284 24.9348C15.0437 24.9348 14.4917 25.4894 14.4917 26.1741V29.374H11.271C10.5889 29.374 10.0317 29.9285 10.0317 30.6107C10.0317 31.2928 10.5889 31.85 11.271 31.85H14.4917V35.0498C14.4917 35.732 15.0463 36.2866 15.7284 36.2866C16.4106 36.2866 16.9677 35.732 16.9677 35.0498V31.85H20.1676C20.8497 31.85 21.4069 31.2954 21.4069 30.6107C21.4069 29.9259 20.8497 29.374 20.1676 29.374ZM20.1676 29.374H16.9677V26.1741C16.9677 25.4894 16.4132 24.9348 15.7284 24.9348C15.0437 24.9348 14.4917 25.4894 14.4917 26.1741V29.374H11.271C10.5889 29.374 10.0317 29.9285 10.0317 30.6107C10.0317 31.2928 10.5889 31.85 11.271 31.85H14.4917V35.0498C14.4917 35.732 15.0463 36.2866 15.7284 36.2866C16.4106 36.2866 16.9677 35.732 16.9677 35.0498V31.85H20.1676C20.8497 31.85 21.4069 31.2954 21.4069 30.6107C21.4069 29.9259 20.8497 29.374 20.1676 29.374ZM20.1676 29.374H16.9677V26.1741C16.9677 25.4894 16.4132 24.9348 15.7284 24.9348C15.0437 24.9348 14.4917 25.4894 14.4917 26.1741V29.374H11.271C10.5889 29.374 10.0317 29.9285 10.0317 30.6107C10.0317 31.2928 10.5889 31.85 11.271 31.85H14.4917V35.0498C14.4917 35.732 15.0463 36.2866 15.7284 36.2866C16.4106 36.2866 16.9677 35.732 16.9677 35.0498V31.85H20.1676C20.8497 31.85 21.4069 31.2954 21.4069 30.6107C21.4069 29.9259 20.8497 29.374 20.1676 29.374Z" fill="var(--fill-0, white)"/>
</svg>
