<svg preserveAspectRatio="none" width="100%" height="100%" overflow="visible" style="display: block;" viewBox="0 0 25.8119 40.1525" fill="none" xmlns="http://www.w3.org/2000/svg">
<path id="Vector" d="M23.1899 9.41567C23.1383 9.23207 23.0159 9.07607 22.8491 8.98247L21.6455 8.30567L23.5307 4.95287L24.7391 5.63207C24.8507 5.69447 24.9719 5.72447 25.0907 5.72447C25.3427 5.72447 25.5863 5.59247 25.7195 5.35727C25.9139 5.01047 25.7915 4.57127 25.4447 4.37687L19.6655 1.12727C19.6655 1.12727 19.6631 1.12487 19.6607 1.12487C19.6595 1.12487 19.6571 1.12367 19.6559 1.12247L17.8247 0.092867C17.4779 -0.102733 17.0387 0.0208666 16.8443 0.367667C16.6499 0.714467 16.7723 1.15367 17.1191 1.34807L18.3275 2.02727L16.4423 5.38007L15.2339 4.70087C14.8871 4.50527 14.4479 4.62887 14.2535 4.97567L11.7443 9.43847C11.7275 9.46247 11.7107 9.48767 11.6963 9.51287C11.6819 9.53807 11.6699 9.56447 11.6579 9.59087L9.16433 14.0261C9.15113 14.0453 9.13913 14.0645 9.12833 14.0849C9.11753 14.1041 9.10793 14.1245 9.09833 14.1449L6.57833 18.6257C6.57233 18.6353 6.56513 18.6461 6.55913 18.6569C6.55313 18.6665 6.54833 18.6773 6.54353 18.6869L4.14233 22.9565C4.04873 23.1233 4.02473 23.3201 4.07633 23.5037C4.12793 23.6873 4.25033 23.8433 4.41713 23.9369L5.54873 24.5729L3.33233 28.5197C3.23873 28.6865 3.21473 28.8833 3.26753 29.0669C3.31913 29.2505 3.44153 29.4065 3.60833 29.5001L5.03153 30.2993L0.092334 39.0797C-0.102066 39.4265 0.0203341 39.8657 0.367134 40.0601C0.478734 40.1225 0.599934 40.1525 0.719934 40.1525C0.971934 40.1525 1.21553 40.0205 1.34873 39.7853L6.28793 31.0049L7.71233 31.8053C8.05913 31.9997 8.49833 31.8773 8.69273 31.5305L10.9079 27.5873L12.0347 28.2209C12.1463 28.2833 12.2675 28.3133 12.3863 28.3133C12.6383 28.3133 12.8819 28.1813 13.0151 27.9461L23.1251 9.96407C23.2187 9.79727 23.2427 9.60047 23.1911 9.41687L23.1899 9.41567ZM19.5827 2.73287L22.2755 4.24727L20.3903 7.60007L17.6975 6.08567L19.5839 2.73287H19.5827ZM7.78913 30.1961L4.94033 28.5965L6.80393 25.2785L9.65153 26.8793L7.78913 30.1961ZM12.1115 26.6105L10.9883 25.9793C10.9883 25.9793 10.9859 25.9781 10.9847 25.9769C10.9835 25.9769 10.9823 25.9757 10.9811 25.9745L5.75153 23.0345L7.46393 19.9877L9.12833 20.9201C9.47513 21.1145 9.91433 20.9909 10.1087 20.6441C10.3031 20.2973 10.1795 19.8581 9.83273 19.6637L8.17073 18.7325L10.0343 15.4169L11.6963 16.3481C12.0431 16.5425 12.4823 16.4189 12.6767 16.0721C12.8711 15.7253 12.7475 15.2861 12.4007 15.0917L10.7411 14.1617L12.6059 10.8461L14.2655 11.7761C14.6123 11.9705 15.0515 11.8469 15.2459 11.5001C15.4403 11.1533 15.3167 10.7141 14.9699 10.5197L13.3115 9.59087L15.1571 6.30767L16.3439 6.97487C16.3511 6.97847 16.3583 6.98327 16.3643 6.98687C16.3715 6.99047 16.3787 6.99527 16.3859 6.99887L20.2859 9.19127C20.2943 9.19727 20.3039 9.20207 20.3135 9.20687C20.3231 9.21167 20.3315 9.21647 20.3411 9.22127L21.5171 9.88247L12.1127 26.6081L12.1115 26.6105Z" fill="var(--fill-0, white)"/>
</svg>
