<svg preserveAspectRatio="none" width="100%" height="100%" overflow="visible" style="display: block;" viewBox="0 0 27 40.4411" fill="none" xmlns="http://www.w3.org/2000/svg">
<path id="Vector" d="M10.7791 26.8106C10.6756 26.9378 10.5044 27.067 10.6307 27.2217C12.387 29.0118 14.3309 30.6417 16.4699 31.9584C16.6484 32.0683 17.3938 32.538 17.5339 32.5407C17.6428 32.5426 17.7472 32.3887 17.8461 32.3439C17.9999 32.2743 18.2142 32.2688 18.3808 32.2917C18.5475 32.3146 19.3643 32.7605 19.4833 32.8823C19.6252 33.027 19.6417 33.2623 19.7571 33.3868C19.8898 33.5306 20.3184 33.6505 20.4997 33.743C22.0325 34.525 23.5744 35.3326 25.1604 35.9864C25.6035 35.7803 26.4395 36.2372 26.7646 36.544C27.0118 36.7784 27.0521 37.0449 26.9422 37.3653L25.3865 40.2048C25.1402 40.4126 24.926 40.4978 24.6009 40.4016C24.4809 40.3659 23.6981 39.9273 23.6028 39.8431C23.3336 39.6032 23.4563 39.3752 23.0919 39.1179C21.5792 38.0502 19.8248 37.1932 18.303 36.1219C18.0649 36.1136 17.8177 36.1704 17.5796 36.1145C17.3681 36.0651 16.545 35.567 16.4488 35.3683C16.3527 35.1696 16.4433 34.8995 16.3463 34.7841C14.1917 33.5095 12.1397 32.0582 10.2938 30.3651C10.0758 30.1655 8.94044 28.9724 8.80492 28.9523L8.67673 28.9889C8.19784 29.4541 7.72628 29.9357 7.23091 30.3835C6.07901 31.4255 4.37589 33.1213 2.7268 33.0205C2.23509 32.9903 0.914714 32.4876 1.51172 31.8522C1.83678 31.5061 2.54 31.061 2.94198 30.7296C4.32004 29.5923 5.67704 28.424 6.96079 27.1814C7.07341 27.0724 7.18421 27.121 7.04686 26.8692C5.634 25.1587 4.39878 23.2358 3.33662 21.2855C0.892738 16.7979 -1.29293 10.7317 0.910135 5.74774C4.79618 -3.03797 19.4 -1.48777 20.0556 8.59543C20.453 14.7074 15.5423 21.4549 11.7011 25.8326C11.41 26.165 11.0583 26.469 10.78 26.8106H10.7791ZM17.0074 3.37894C13.1149 -0.618811 5.38403 0.000172427 2.30102 4.71214C-1.35886 10.304 2.08767 18.0514 5.2302 23.1003C5.81164 24.0343 6.72546 25.4893 7.46715 26.2658C7.54406 26.3463 7.61457 26.4214 7.71803 26.4709C7.83341 26.2978 7.98449 26.1623 8.12825 26.014C8.24454 25.894 8.41668 25.8812 8.32878 25.634C8.30772 25.5763 8.20883 25.5442 8.1603 25.482C4.63411 20.9778 0.570427 13.1563 2.31567 7.33641C4.70553 -0.629798 17.2024 -0.113369 18.1272 8.41688C18.6354 13.1032 15.5249 18.1796 12.7944 21.7525C9.84144 25.6175 6.33173 29.0301 2.47591 31.9904L2.45576 32.2468C2.55923 32.321 3.14708 32.2935 3.30091 32.267C4.51599 32.0564 6.90768 29.726 7.85538 28.8094C12.4208 24.3923 18.9376 16.6239 19.3221 10.0596C19.4705 7.53693 18.7737 5.19469 17.0064 3.37986L17.0074 3.37894ZM15.046 4.01258C11.7387 1.24546 6.17882 2.07322 3.85672 5.71844C0.75539 10.5879 4.04992 17.9067 6.78681 22.2744C7.42319 23.2908 8.11085 24.2925 8.90747 25.1889C10.8395 23.1379 12.6607 20.8945 14.1871 18.5202C16.8004 14.4538 19.5804 7.80522 15.046 4.01166V4.01258ZM11.7881 30.7113C12.8008 31.5683 13.9372 32.4281 15.0506 33.1487C15.4114 33.3822 16.1402 33.8904 16.4955 34.0378C16.5953 34.079 16.6951 34.1056 16.7821 34.0269C16.8499 33.9655 17.1832 33.33 17.1493 33.2495L17.0339 33.1323C14.9416 31.9199 12.9885 30.4759 11.2177 28.8305C10.9228 28.5558 10.4082 27.9167 10.1152 27.7354C10.0758 27.7107 9.97238 27.6612 9.93484 27.6832C9.88173 27.8718 9.27556 28.2646 9.36164 28.4395C10.1491 29.2169 10.9421 29.9961 11.7863 30.7103L11.7881 30.7113ZM18.2114 33.026C18.1538 33.0416 18.0796 33.1341 18.0475 33.1863L17.131 34.9297C17.0696 35.0698 17.7014 35.3985 17.7454 35.4031C17.7857 35.4077 17.8223 35.3985 17.8571 35.3774L18.9037 33.4884L18.8909 33.3868C18.7673 33.2861 18.3488 32.9894 18.2114 33.026ZM19.4824 34.0873C19.4128 34.0946 18.8213 35.1256 18.7563 35.2685C18.7288 35.328 18.6693 35.4864 18.7022 35.5386L23.4023 38.487L23.6523 38.52L24.6146 36.7747L24.5432 36.5669L19.4824 34.0873ZM25.533 36.6887L24.1312 39.182C24.1202 39.2571 24.1229 39.3029 24.176 39.3615C24.2365 39.4283 24.7712 39.6948 24.8628 39.6371L26.2298 37.108L26.1923 37.0265L25.533 36.6887Z" fill="var(--fill-0, #0094C5)"/>
</svg>
