<svg preserveAspectRatio="none" width="100%" height="100%" overflow="visible" style="display: block;" viewBox="0 0 24.6848 4.83" fill="none" xmlns="http://www.w3.org/2000/svg">
<path id="Vector" d="M4.6284 0H0.6664C0.2996 0 0 0.2982 0 0.6664V4.165C0 4.5332 0.2996 4.83 0.6664 4.83C1.0332 4.83 1.3328 4.5332 1.3328 4.165V1.3314H3.962V4.165C3.962 4.5332 4.2602 4.83 4.6284 4.83C4.9966 4.83 5.2934 4.5332 5.2934 4.165V0.6664C5.2934 0.2982 4.9966 0 4.6284 0ZM24.0184 0H20.0578C19.6896 0 19.3914 0.2982 19.3914 0.6664V4.165C19.3914 4.5332 19.6896 4.83 20.0578 4.83C20.426 4.83 20.7242 4.5332 20.7242 4.165V1.3314H23.3534V4.165C23.3534 4.5332 23.6516 4.83 24.0184 4.83C24.3852 4.83 24.6848 4.5332 24.6848 4.165V0.6664C24.6848 0.2982 24.3866 0 24.0184 0Z" fill="var(--fill-0, #0b786a)"/>
</svg>
