<svg preserveAspectRatio="none" width="100%" height="100%" overflow="visible" style="display: block;" viewBox="0 0 42 50.4" fill="none" xmlns="http://www.w3.org/2000/svg">
<path id="Vector" d="M27.6412 43.666C27.6528 47.427 24.7097 50.3961 21.0743 50.4C17.4892 50.4 14.4958 47.5051 14.5074 43.666L1.27685 43.6582C0.855298 43.6582 0.251976 43.2563 0.0856761 42.9364C-0.0651543 42.6399 -0.0148775 41.9961 0.221037 41.6099L6.83824 30.709L6.78796 18.6455C6.78022 16.5855 7.33327 14.7479 8.1377 12.8752C10.1488 9.0712 13.6875 6.43378 17.8411 5.54813C17.8295 4.24112 17.6323 2.85218 18.108 1.69733C18.6997 0.277179 20.3666 -0.140284 21.7782 0.0391863C23.1898 0.218656 24.4622 1.30718 24.4893 2.85218L24.5357 5.57934C31.0562 6.9995 35.6198 12.0949 35.612 19.0435L35.6004 30.2526L41.7883 41.6138C42.0088 42.0195 42.0668 42.6165 41.916 42.9364C41.7651 43.2563 41.1115 43.6582 40.7055 43.6582L27.6412 43.666ZM22.0837 5.24772L22.045 2.71173C21.6119 2.42692 20.761 2.40741 20.2931 2.68052L20.2737 5.25162C20.9428 5.2009 21.4649 5.2009 22.0837 5.25162V5.24772ZM38.7563 41.1651L33.7905 32.0863C33.3573 31.2982 33.0866 30.5023 33.133 29.5698L33.1021 18.0486C33.0943 14.8181 31.2921 11.9349 28.7125 10.07C24.3346 6.90196 18.3246 6.83563 13.9234 9.91003C10.8604 12.0481 9.21672 15.3253 9.24379 19.0318L9.32114 29.956C9.36755 30.9587 9.06589 31.7859 8.56312 32.6169L3.36914 41.1807L38.7563 41.1651ZM25.0307 43.6621H17.0754C17.0019 45.9328 18.8235 47.7782 20.9583 47.8094C23.2787 47.8445 25.1274 45.9757 25.0346 43.6621H25.0307Z" fill="var(--fill-0, #0094C5)"/>
</svg>
