<svg preserveAspectRatio="none" overflow="visible" style="display: block;" width="64" height="64" viewBox="0 0 64 64" fill="none" xmlns="http://www.w3.org/2000/svg">
<g id="icons">
<path id="Vector" d="M40.1792 17.7856C40.1104 17.5408 39.9472 17.3328 39.7248 17.208L38.12 16.3056L40.6336 11.8352L42.2448 12.7408C42.3936 12.824 42.5552 12.864 42.7136 12.864C43.0496 12.864 43.3744 12.688 43.552 12.3744C43.8112 11.912 43.648 11.3264 43.1856 11.0672L35.48 6.7344C35.48 6.7344 35.4768 6.7312 35.4736 6.7312C35.472 6.7312 35.4688 6.7296 35.4672 6.728L33.0256 5.3552C32.5632 5.0944 31.9776 5.2592 31.7184 5.7216C31.4592 6.184 31.6224 6.7696 32.0848 7.0288L33.696 7.9344L31.1824 12.4048L29.5712 11.4992C29.1088 11.2384 28.5232 11.4032 28.264 11.8656L24.9184 17.816C24.896 17.848 24.8736 17.8816 24.8544 17.9152C24.8352 17.9488 24.8192 17.984 24.8032 18.0192L21.4784 23.9328C21.4608 23.9584 21.4448 23.984 21.4304 24.0112C21.416 24.0368 21.4032 24.064 21.3904 24.0912L18.0304 30.0656C18.0224 30.0784 18.0128 30.0928 18.0048 30.1072C17.9968 30.12 17.9904 30.1344 17.984 30.1472L14.7824 35.84C14.6576 36.0624 14.6256 36.3248 14.6944 36.5696C14.7632 36.8144 14.9264 37.0224 15.1488 37.1472L16.6576 37.9952L13.7024 43.2576C13.5776 43.48 13.5456 43.7424 13.616 43.9872C13.6848 44.232 13.848 44.44 14.0704 44.5648L15.968 45.6304L9.3824 57.3376C9.1232 57.8 9.2864 58.3856 9.7488 58.6448C9.8976 58.728 10.0592 58.768 10.2192 58.768C10.5552 58.768 10.88 58.592 11.0576 58.2784L17.6432 46.5712L19.5424 47.6384C20.0048 47.8976 20.5904 47.7344 20.8496 47.272L23.8032 42.0144L25.3056 42.8592C25.4544 42.9424 25.616 42.9824 25.7744 42.9824C26.1104 42.9824 26.4352 42.8064 26.6128 42.4928L40.0928 18.5168C40.2176 18.2944 40.2496 18.032 40.1808 17.7872L40.1792 17.7856ZM35.3696 8.8752L38.96 10.8944L36.4464 15.3648L32.856 13.3456L35.3712 8.8752H35.3696ZM19.6448 45.4928L15.8464 43.36L18.3312 38.936L22.128 41.0704L19.6448 45.4928ZM25.408 40.712L23.9104 39.8704C23.9104 39.8704 23.9072 39.8688 23.9056 39.8672C23.904 39.8672 23.9024 39.8656 23.9008 39.864L16.928 35.944L19.2112 31.8816L21.4304 33.1248C21.8928 33.384 22.4784 33.2192 22.7376 32.7568C22.9968 32.2944 22.832 31.7088 22.3696 31.4496L20.1536 30.208L22.6384 25.7872L24.8544 27.0288C25.3168 27.288 25.9024 27.1232 26.1616 26.6608C26.4208 26.1984 26.256 25.6128 25.7936 25.3536L23.5808 24.1136L26.0672 19.6928L28.28 20.9328C28.7424 21.192 29.328 21.0272 29.5872 20.5648C29.8464 20.1024 29.6816 19.5168 29.2192 19.2576L27.008 18.0192L29.4688 13.6416L31.0512 14.5312C31.0608 14.536 31.0704 14.5424 31.0784 14.5472C31.088 14.552 31.0976 14.5584 31.1072 14.5632L36.3072 17.4864C36.3184 17.4944 36.3312 17.5008 36.344 17.5072C36.3568 17.5136 36.368 17.52 36.3808 17.5264L37.9488 18.408L25.4096 40.7088L25.408 40.712Z" fill="#188D7B"/>
<path id="Vector_2" d="M45.9216 46.024L44.9344 43.3104C45.4448 43.288 45.8528 42.8688 45.8528 42.352V38.048C45.8528 37.5184 45.4224 37.088 44.8928 37.088H34.7968C34.2672 37.088 33.8368 37.5184 33.8368 38.048V42.352C33.8368 42.8672 34.2448 43.288 34.7552 43.3104L33.768 46.024C33.7296 46.1296 33.7104 46.24 33.7104 46.352V57.488C33.7104 58.0176 34.1408 58.448 34.6704 58.448H45.0224C45.552 58.448 45.9824 58.0176 45.9824 57.488V46.352C45.9824 46.24 45.9632 46.1296 45.9248 46.024H45.9216ZM35.7568 39.008H43.9328V41.392H35.7568V39.008ZM44.0608 56.528H35.6288V46.5216L36.7968 43.312H42.8928L44.0608 46.5216V56.528Z" fill="#188D7B"/>
</g>
</svg>
